P1
# CREATOR: GIMP PNM Filter Version 1.1
17 17
0000000000000000000000000000000000000011100011100000000000000000000000
1000010100001000010000101000010000100001010000100000011100011100000000
0000000000000000011100011100000010000101000010000100001010000100001000
0101000010000000000000000000000011100011100000000000000000000000000000
000000000