P1
# CREATOR: GIMP PNM Filter Version 1.1
20 14
0000000000000000000000000000000000000000000000000000000000000000000000
0000100000000000000000010100000000000000000110100001100000000001101100
0110000000000110100000000000000001010000000000000000001000000000000000
0000000000000000000000000000000000000000000000000000000000000000000000