P1
# CREATOR: GIMP PNM Filter Version 1.1
5 5
00000
00000
01110
00000
00000
