P1
# CREATOR: GIMP PNM Filter Version 1.1
38 11
0000000000000000000000000000000000000000000000000000000000000001000000
0000000000000000000000000000010100000000000000000000000001100000011000
0000000001100000000000001000100001100000000000011001100000000100000100
0110000000000000000110000000010001011000010100000000000000000000000100
0001000000010000000000000000000000001000100000000000000000000000000000
00000110000000000000000000000000000000000000000000000000000000000000