P1
# CREATOR: GIMP PNM Filter Version 1.1
50 36
0000000000000000000000000000000000000000000000000000000000000000000000
0000010100000000000000000000000000000000000000000000001001000010000000
0000000000000000000000001000000001100000110000000000000000000000000000
0001010000011000100000000110000000000000000000000000011010000001100000
0000011000000000000001100000000001101100000010010000000000000000000000
0110000000000110100000000101000000000000000000000000000000000001010000
0000000000000000000000000000000000000000000010000000001000000000000000
0000000000000000000000000000000000010000000000000000000000000000000000
0000000000000111000000000000000000000000000000000000000000000000000000
0000000000000000000000000000000000000000000000000000000000000000000000
0000000000000000000000000000000000000000000000000000000000000000000000
0000000000000000000000000000000000000000000000000000000000000000000000
0000000000000000000000000000000000000000001000000000000000000000000000
0000000000000000000010100000000000000000000000000000000000000000000000
0110000000000000000000000000000000000000000000000000000000000000000000
0000000000000000000000000000000000000000000000000000000000000000000000
0000000000000000000000000000000000000000000000000000000000000000000000
0000000000000000000000000000000000000000000000000100000000000000000000
0000000000000000000000000000001000000000000000000000000000000000000000
0000000011100000000000000000000000000000000000000000000000000000000000
0000000000000000000000000000000000000000000000000000000000000000000000
0000000000000000000000000000000000000000000000000000000000000000000000
0000000000000000000000000000000000000000000000000000000000000000000000
0000000000000000000000000000000000000100000000000000000000000000000000
0000000000000001010000000000000000000000000000000000000000000000001100
00000000000000000000000000000000000000000000000000